<?xml version="1.0" standalone="no"?>
<!DOCTYPE svg PUBLIC "-//W3C//DTD SVG 20010904//EN"
 "http://www.w3.org/TR/2001/REC-SVG-20010904/DTD/svg10.dtd">
<svg version="1.0" xmlns="http://www.w3.org/2000/svg"
 width="24.000000pt" height="24.000000pt" viewBox="0 0 24.000000 24.000000"
 preserveAspectRatio="xMidYMid meet">

<g transform="translate(0.000000,24.000000) scale(0.100000,-0.100000)"
fill="#000000" stroke="none">
<path d="M32 213 c11 -3 18 -20 23 -56 11 -80 17 -87 79 -87 62 0 72 9 82 68
l7 42 -78 0 c-68 0 -77 2 -82 20 -3 13 -13 20 -27 19 -15 -1 -17 -3 -4 -6z
m167 -85 c-5 -18 -9 -34 -9 -35 0 -2 -25 -3 -55 -3 -37 0 -55 4 -55 13 0 6 -3
22 -6 35 -6 21 -4 22 64 22 l71 0 -10 -32z"/>
<path d="M77 54 c-14 -15 -6 -34 14 -34 14 0 19 5 17 17 -3 18 -20 27 -31 17z"/>
<path d="M167 54 c-14 -15 -6 -34 14 -34 14 0 19 5 17 17 -3 18 -20 27 -31 17z"/>
</g>
</svg>
